<?xml version="1.0" standalone="no"?>
<!DOCTYPE svg PUBLIC "-//W3C//DTD SVG 20010904//EN"
 "http://www.w3.org/TR/2001/REC-SVG-20010904/DTD/svg10.dtd">
<svg version="1.0" xmlns="http://www.w3.org/2000/svg"
 width="512.000000pt" height="512.000000pt" viewBox="0 0 512.000000 512.000000"
 preserveAspectRatio="xMidYMid meet">
<metadata>
Created by potrace 1.11, written by Peter Selinger 2001-2013
</metadata>
<g transform="translate(0.000000,512.000000) scale(0.100000,-0.100000)"
fill="#000000" stroke="none">
<path d="M2575 4433 c-469 -31 -885 -215 -1204 -532 -294 -292 -470 -662 -521
-1096 -15 -128 -15 -411 0 -540 55 -478 261 -869 605 -1153 44 -37 116 -100
161 -142 233 -218 540 -360 899 -417 167 -27 541 -24 734 6 266 41 500 111
724 218 l117 56 0 854 0 853 -115 0 -115 0 0 100 0 100 -675 0 -675 0 0 -250
0 -250 115 0 115 0 0 -100 0 -100 265 0 265 0 0 -329 0 -328 -67 -30 c-172
-77 -325 -106 -563 -107 -193 -1 -274 10 -415 55 -202 65 -274 126 -372 316
-66 127 -97 216 -130 371 -24 116 -27 147 -27 362 -1 259 8 328 66 510 100
313 332 586 623 732 270 136 623 170 999 98 181 -35 385 -112 528 -200 26 -17
50 -30 53 -30 3 0 5 137 5 304 l0 304 -72 26 c-40 14 -91 32 -113 40 l-40 13
-3 60 -3 59 -87 32 c-282 105 -716 159 -1077 135z"/>
</g>
</svg>
