<svg xmlns="http://www.w3.org/2000/svg" xmlns:xlink="http://www.w3.org/1999/xlink" version="1.1" x="0px" y="0px" viewBox="0 0 100 100" enable-background="new 0 0 100 100" xml:space="preserve"><g><path d="M79.6,14.9c2,0,3.7,1.6,3.7,3.7v70.8c0,2-1.6,3.7-3.7,3.7H20.4c-2,0-3.7-1.6-3.7-3.7V18.6c0-2,1.6-3.7,3.7-3.7H79.6    M79.6,13H20.4c-3.1,0-5.6,2.5-5.6,5.6v70.8c0,3.1,2.5,5.6,5.6,5.6h59.1c3.1,0,5.6-2.5,5.6-5.6V18.6C85.2,15.5,82.7,13,79.6,13   L79.6,13z"/><path d="M71.3,12.4c0-1.8-1.5-3.3-3.3-3.3h-6.9c-0.6,0-1.2-0.5-1.2-1.2V7.9C59.9,6.3,58.6,5,57,5H43c-1.6,0-2.9,1.3-2.9,2.9V8   c0,0.6-0.5,1.2-1.2,1.2h-6.9c-1.8,0-3.3,1.5-3.3,3.3l0,7c0,1.8,1.5,3.3,3.3,3.3h35.9c1.8,0,3.3-1.5,3.3-3.3L71.3,12.4z M54.9,10.1   h-9.7c-0.5,0-1-0.4-1-1c0-0.5,0.4-1,1-1h9.7c0.5,0,1,0.4,1,1C55.8,9.7,55.4,10.1,54.9,10.1z"/></g></svg>