<svg xmlns="http://www.w3.org/2000/svg" xmlns:xlink="http://www.w3.org/1999/xlink" version="1.1" x="0px" y="0px" viewBox="0 0 100 125" enable-background="new 0 0 100 100" xml:space="preserve"><g><path fill="#000000" d="M60.91,86.818L60.91,86.818c-3.765-0.007-6.813-3.055-6.819-6.818V67.727h6.819   c2.259,0,4.091-1.832,4.091-4.091c0-2.26-1.832-4.091-4.091-4.091h-6.819V20c0.007-3.764,3.054-6.811,6.819-6.818   c2.259,0,4.09-1.832,4.09-4.091C65,6.832,63.168,5,60.909,5C56.595,5.001,52.736,6.846,50,9.76C47.264,6.846,43.405,5.001,39.091,5   C36.831,5,35,6.831,35,9.091c0,2.259,1.831,4.091,4.091,4.091v0c3.764,0.007,6.811,3.054,6.818,6.818v39.546h-6.818   c-2.26,0-4.091,1.831-4.091,4.091c0,2.259,1.831,4.091,4.091,4.091h6.818V80c-0.007,3.764-3.054,6.811-6.819,6.818   c-2.26,0-4.092,1.832-4.091,4.092C35,93.169,36.832,95,39.092,95c4.314-0.002,8.172-1.847,10.908-4.761   c2.735,2.914,6.594,4.759,10.908,4.761C63.168,95,65,93.169,65,90.909C65,88.65,63.169,86.818,60.91,86.818z"/></g><text x="0" y="115" fill="#000000" font-size="5px" font-weight="bold" font-family="'Helvetica Neue', Helvetica, Arial-Unicode, Arial, Sans-serif">Created by Viktor Ostrovsky</text><text x="0" y="120" fill="#000000" font-size="5px" font-weight="bold" font-family="'Helvetica Neue', Helvetica, Arial-Unicode, Arial, Sans-serif">from the Noun Project</text></svg>